<svg width="1024" height="192" viewBox="0 0 1024 192" fill="none" xmlns="http://www.w3.org/2000/svg">
<path fill-rule="evenodd" clip-rule="evenodd" d="M1024 96.6744V0H0V34.205C4.7157 34.325 10.5541 32.0669 17.6715 25.9716C39.7598 7.05546 76.4321 32.9776 92.0072 48.3032C89.8833 60.5637 90.7329 86.1356 111.122 90.3392C131.511 94.5428 139.44 79.8302 140.856 71.9485C133.777 64.0667 123.865 48.3032 140.856 48.3032C157.847 48.3032 163.511 109.606 164.219 140.257C173.423 149.014 196.077 161.275 213.068 140.257C230.059 119.239 220.148 98.2209 213.068 90.3392C208.113 86.8362 204.148 75.6266 227.935 58.8122C251.723 41.9978 261.917 51.8062 264.041 58.8122C274.661 64.9425 300.997 73.5248 321.386 58.8122C341.775 44.0996 348.288 83.3332 348.996 104.789C363.864 119.239 394.872 132.901 399.969 71.9485C401.146 57.8825 401.453 48.1595 401.307 41.6305C402.903 42.9609 405.21 43.6527 408.465 43.0487C426.872 37.7943 465.81 33.5907 474.305 58.8122C482.801 84.0338 499.084 78.0787 506.163 71.9485C502.624 56.6228 503.19 25.9716 533.774 25.9716C564.358 25.9716 580.499 40.8594 584.747 48.3032V71.9485C592.534 76.3272 608.959 82.4575 612.357 71.9485C615.189 41.2972 628.074 -10.8098 656.959 25.9716C657.667 40.8594 667.153 66.1685 699.436 48.3032C718.079 37.9864 724.936 23.1836 729.431 13.4799C734.666 2.17919 736.697 -2.20607 750.409 15.4626C770.799 41.7351 767.4 85.9604 763.153 104.789C754.657 118.363 742.763 148.401 763.153 159.961C772.826 165.446 780.358 173.202 786.677 179.708C797.007 190.345 804.095 197.644 812.002 186.234C820.133 187.547 829.393 178.352 801.382 131.062C773.372 83.7711 796.791 56.185 812.002 48.3032C813.418 32.9776 824.745 10.4709 858.727 43.0487C890.585 59.2501 955.576 85.0847 960.673 58.8122L1024 96.6744Z" fill="#36E43D"/>
</svg>
